<svg width="172" height="33" viewBox="0 0 172 33" fill="none" xmlns="http://www.w3.org/2000/svg">
<g filter="url(#filter0_dd_3004_2342)">
<g clip-path="url(#clip0_3004_2342)">
<rect x="3" y="4.48047" width="24" height="24" rx="12" fill="#3EC92B"/>
<path d="M19.875 11.543C21.1875 12.8555 22 14.5742 22 16.4492C22 20.2617 18.8125 23.3867 14.9688 23.3867C13.8125 23.3867 12.6875 23.0742 11.6562 22.543L8 23.4805L8.96875 19.8867C8.375 18.8555 8.03125 17.668 8.03125 16.418C8.03125 12.6055 11.1562 9.48047 14.9688 9.48047C16.8438 9.48047 18.5938 10.2305 19.875 11.543ZM14.9688 22.1992C18.1562 22.1992 20.8125 19.6055 20.8125 16.4492C20.8125 14.8867 20.1562 13.4492 19.0625 12.3555C17.9688 11.2617 16.5312 10.668 15 10.668C11.8125 10.668 9.21875 13.2617 9.21875 16.418C9.21875 17.5117 9.53125 18.5742 10.0938 19.5117L10.25 19.7305L9.65625 21.8555L11.8438 21.2617L12.0312 21.3867C12.9375 21.918 13.9375 22.1992 14.9688 22.1992ZM18.1562 17.8867C18.3125 17.9805 18.4375 18.0117 18.4688 18.1055C18.5312 18.168 18.5312 18.5117 18.375 18.918C18.2188 19.3242 17.5312 19.6992 17.2188 19.7305C16.6562 19.8242 16.2188 19.793 15.125 19.293C13.375 18.543 12.25 16.793 12.1562 16.6992C12.0625 16.5742 11.4688 15.7617 11.4688 14.8867C11.4688 14.043 11.9062 13.6367 12.0625 13.4492C12.2188 13.2617 12.4062 13.2305 12.5312 13.2305C12.625 13.2305 12.75 13.2305 12.8438 13.2305C12.9688 13.2305 13.0938 13.1992 13.25 13.543C13.375 13.8867 13.75 14.7305 13.7812 14.8242C13.8125 14.918 13.8438 15.0117 13.7812 15.1367C13.4688 15.793 13.0938 15.7617 13.2812 16.0742C13.9688 17.2305 14.625 17.6367 15.6562 18.1367C15.8125 18.2305 15.9062 18.1992 16.0312 18.1055C16.125 17.9805 16.4688 17.5742 16.5625 17.418C16.6875 17.2305 16.8125 17.2617 16.9688 17.3242C17.125 17.3867 17.9688 17.793 18.1562 17.8867Z" fill="#F5F8FF"/>
</g>
</g>
<path d="M43.924 12.4805V4.08047H49.936V4.89647H44.848V7.83647H48.172V8.64047H44.848V11.6645H49.984V12.4805H43.924ZM53.0705 12.6005C52.5745 12.6005 52.1065 12.5205 51.6665 12.3605C51.2345 12.1925 50.8585 11.9605 50.5385 11.6645L51.0785 11.0885C51.3585 11.3445 51.6665 11.5445 52.0025 11.6885C52.3385 11.8245 52.6825 11.8925 53.0345 11.8925C53.5145 11.8925 53.9065 11.7925 54.2105 11.5925C54.5145 11.3925 54.6665 11.1325 54.6665 10.8125C54.6665 10.5485 54.5745 10.3445 54.3905 10.2005C54.2145 10.0485 53.9345 9.94447 53.5505 9.88847L52.5065 9.74447C51.9065 9.65647 51.4585 9.47647 51.1625 9.20447C50.8745 8.93247 50.7305 8.56447 50.7305 8.10047C50.7305 7.76447 50.8265 7.46447 51.0185 7.20047C51.2105 6.93647 51.4745 6.72847 51.8105 6.57647C52.1545 6.42447 52.5465 6.34847 52.9865 6.34847C53.4265 6.34847 53.8385 6.41247 54.2225 6.54047C54.6065 6.66847 54.9825 6.86847 55.3505 7.14047L54.8825 7.74047C54.5465 7.50847 54.2185 7.34047 53.8985 7.23647C53.5865 7.12447 53.2665 7.06847 52.9385 7.06847C52.5225 7.06847 52.1865 7.16047 51.9305 7.34447C51.6745 7.52847 51.5465 7.76847 51.5465 8.06447C51.5465 8.33647 51.6345 8.54447 51.8105 8.68847C51.9865 8.82447 52.2705 8.92047 52.6625 8.97647L53.7065 9.12047C54.3065 9.20047 54.7545 9.37647 55.0505 9.64847C55.3545 9.92047 55.5065 10.2925 55.5065 10.7645C55.5065 11.1085 55.3985 11.4205 55.1825 11.7005C54.9665 11.9805 54.6745 12.2005 54.3065 12.3605C53.9465 12.5205 53.5345 12.6005 53.0705 12.6005ZM59.3486 12.5885C58.7806 12.5885 58.2646 12.4525 57.8006 12.1805C57.3366 11.9005 56.9686 11.5245 56.6966 11.0525C56.4246 10.5805 56.2886 10.0525 56.2886 9.46847C56.2886 8.88447 56.4246 8.36047 56.6966 7.89647C56.9686 7.42447 57.3366 7.04847 57.8006 6.76847C58.2646 6.48847 58.7806 6.34847 59.3486 6.34847C59.7886 6.34847 60.2126 6.43247 60.6206 6.60047C61.0286 6.76047 61.3886 6.99247 61.7006 7.29647L61.1366 7.94447C60.8966 7.68847 60.6206 7.49647 60.3086 7.36847C60.0046 7.23247 59.6886 7.16447 59.3606 7.16447C58.9526 7.16447 58.5806 7.26847 58.2446 7.47647C57.9166 7.67647 57.6526 7.95247 57.4526 8.30447C57.2606 8.64847 57.1646 9.03647 57.1646 9.46847C57.1646 9.90047 57.2606 10.2925 57.4526 10.6445C57.6526 10.9965 57.9206 11.2765 58.2566 11.4845C58.5926 11.6845 58.9646 11.7845 59.3726 11.7845C59.7006 11.7845 60.0086 11.7205 60.2966 11.5925C60.5926 11.4645 60.8686 11.2765 61.1246 11.0285L61.6766 11.6285C61.3566 11.9325 60.9966 12.1685 60.5966 12.3365C60.1966 12.5045 59.7806 12.5885 59.3486 12.5885ZM62.7169 12.4805V6.46847H63.6049V7.32047C63.7889 7.00847 64.0209 6.76847 64.3009 6.60047C64.5889 6.42447 64.9169 6.33647 65.2849 6.33647C65.4929 6.33647 65.6809 6.36447 65.8489 6.42047V7.23647C65.7449 7.19647 65.6409 7.16847 65.5369 7.15247C65.4329 7.13647 65.3289 7.12847 65.2249 7.12847C64.8569 7.12847 64.5329 7.23647 64.2529 7.45247C63.9809 7.66047 63.7649 7.96447 63.6049 8.36447V12.4805H62.7169ZM66.8654 12.4805V6.46847H67.7534V12.4805H66.8654ZM66.5414 5.28047L67.6694 3.88847H68.8094L67.3214 5.28047H66.5414ZM69.2677 12.4805V4.08047L70.1557 3.87647V7.10447C70.6677 6.61647 71.3117 6.37247 72.0877 6.37247C72.6557 6.37247 73.1677 6.51247 73.6237 6.79247C74.0797 7.06447 74.4397 7.43247 74.7037 7.89647C74.9757 8.36047 75.1117 8.88447 75.1117 9.46847C75.1117 10.0525 74.9757 10.5805 74.7037 11.0525C74.4397 11.5165 74.0797 11.8885 73.6237 12.1685C73.1677 12.4405 72.6517 12.5765 72.0757 12.5765C71.7237 12.5765 71.3797 12.5165 71.0437 12.3965C70.7157 12.2765 70.4157 12.1045 70.1437 11.8805V12.4805H69.2677ZM72.0037 11.7965C72.4277 11.7965 72.8077 11.6965 73.1437 11.4965C73.4797 11.2885 73.7437 11.0125 73.9357 10.6685C74.1357 10.3165 74.2357 9.92047 74.2357 9.48047C74.2357 9.04047 74.1357 8.64447 73.9357 8.29247C73.7437 7.94047 73.4797 7.66447 73.1437 7.46447C72.8077 7.25647 72.4277 7.15247 72.0037 7.15247C71.6277 7.15247 71.2757 7.22847 70.9477 7.38047C70.6277 7.52447 70.3637 7.72847 70.1557 7.99247V10.9685C70.3637 11.2245 70.6317 11.4285 70.9597 11.5805C71.2877 11.7245 71.6357 11.7965 72.0037 11.7965ZM79.1658 12.5885C78.5898 12.5885 78.0658 12.4525 77.5938 12.1805C77.1298 11.9005 76.7578 11.5245 76.4778 11.0525C76.2058 10.5805 76.0698 10.0525 76.0698 9.46847C76.0698 8.89247 76.2018 8.37247 76.4658 7.90847C76.7298 7.43647 77.0858 7.06447 77.5338 6.79247C77.9818 6.51247 78.4818 6.37247 79.0338 6.37247C79.5698 6.37247 80.0498 6.51247 80.4738 6.79247C80.9058 7.06447 81.2458 7.43647 81.4938 7.90847C81.7498 8.37247 81.8778 8.89247 81.8778 9.46847V9.74447H76.9458C76.9938 10.1365 77.1178 10.4885 77.3178 10.8005C77.5258 11.1125 77.7938 11.3605 78.1218 11.5445C78.4498 11.7205 78.8098 11.8085 79.2018 11.8085C79.5138 11.8085 79.8178 11.7605 80.1138 11.6645C80.4098 11.5685 80.6578 11.4325 80.8578 11.2565L81.4098 11.8445C81.0738 12.0925 80.7218 12.2805 80.3538 12.4085C79.9938 12.5285 79.5978 12.5885 79.1658 12.5885ZM76.9698 9.03647H80.9898C80.9418 8.67647 80.8218 8.35647 80.6298 8.07647C80.4458 7.78847 80.2138 7.56447 79.9338 7.40447C79.6538 7.23647 79.3458 7.15247 79.0098 7.15247C78.6658 7.15247 78.3498 7.23247 78.0618 7.39247C77.7738 7.55247 77.5338 7.77647 77.3418 8.06447C77.1498 8.34447 77.0258 8.66847 76.9698 9.03647ZM83.1193 12.4805V6.46847H84.0073V7.17647C84.4793 6.62447 85.1113 6.34847 85.9033 6.34847C86.3593 6.34847 86.7593 6.44847 87.1033 6.64847C87.4553 6.84047 87.7273 7.11247 87.9193 7.46447C88.1193 7.80847 88.2193 8.21247 88.2193 8.67647V12.4805H87.3433V8.85647C87.3433 8.32047 87.1913 7.90047 86.8873 7.59647C86.5913 7.28447 86.1833 7.12847 85.6633 7.12847C85.3033 7.12847 84.9833 7.20847 84.7033 7.36847C84.4233 7.52847 84.1913 7.75647 84.0073 8.05247V12.4805H83.1193ZM92.5012 12.6005C91.9332 12.6005 91.4132 12.4645 90.9412 12.1925C90.4772 11.9125 90.1092 11.5365 89.8372 11.0645C89.5652 10.5925 89.4292 10.0645 89.4292 9.48047C89.4292 8.89647 89.5652 8.36847 89.8372 7.89647C90.1092 7.42447 90.4772 7.05247 90.9412 6.78047C91.4132 6.50047 91.9332 6.36047 92.5012 6.36047C93.0772 6.36047 93.5972 6.50047 94.0612 6.78047C94.5252 7.05247 94.8932 7.42447 95.1652 7.89647C95.4372 8.36847 95.5732 8.89647 95.5732 9.48047C95.5732 10.0645 95.4372 10.5925 95.1652 11.0645C94.8932 11.5365 94.5252 11.9125 94.0612 12.1925C93.5972 12.4645 93.0772 12.6005 92.5012 12.6005ZM92.5012 11.8085C92.9092 11.8085 93.2772 11.7045 93.6052 11.4965C93.9412 11.2885 94.2052 11.0085 94.3972 10.6565C94.5972 10.3045 94.6972 9.91247 94.6972 9.48047C94.6972 9.04047 94.5972 8.64847 94.3972 8.30447C94.2052 7.95247 93.9412 7.67247 93.6052 7.46447C93.2772 7.25647 92.9092 7.15247 92.5012 7.15247C92.0932 7.15247 91.7212 7.25647 91.3852 7.46447C91.0572 7.67247 90.7932 7.95247 90.5932 8.30447C90.4012 8.64847 90.3052 9.04047 90.3052 9.48047C90.3052 9.91247 90.4012 10.3045 90.5932 10.6565C90.7932 11.0085 91.0572 11.2885 91.3852 11.4965C91.7212 11.7045 92.0932 11.8085 92.5012 11.8085ZM98.7268 12.6005C98.2308 12.6005 97.7628 12.5205 97.3228 12.3605C96.8908 12.1925 96.5148 11.9605 96.1948 11.6645L96.7348 11.0885C97.0148 11.3445 97.3228 11.5445 97.6588 11.6885C97.9948 11.8245 98.3388 11.8925 98.6908 11.8925C99.1708 11.8925 99.5628 11.7925 99.8668 11.5925C100.171 11.3925 100.323 11.1325 100.323 10.8125C100.323 10.5485 100.231 10.3445 100.047 10.2005C99.8708 10.0485 99.5908 9.94447 99.2068 9.88847L98.1628 9.74447C97.5628 9.65647 97.1148 9.47647 96.8188 9.20447C96.5308 8.93247 96.3868 8.56447 96.3868 8.10047C96.3868 7.76447 96.4828 7.46447 96.6748 7.20047C96.8668 6.93647 97.1308 6.72847 97.4668 6.57647C97.8108 6.42447 98.2028 6.34847 98.6428 6.34847C99.0828 6.34847 99.4948 6.41247 99.8788 6.54047C100.263 6.66847 100.639 6.86847 101.007 7.14047L100.539 7.74047C100.203 7.50847 99.8748 7.34047 99.5548 7.23647C99.2428 7.12447 98.9228 7.06847 98.5948 7.06847C98.1788 7.06847 97.8428 7.16047 97.5868 7.34447C97.3308 7.52847 97.2028 7.76847 97.2028 8.06447C97.2028 8.33647 97.2908 8.54447 97.4668 8.68847C97.6428 8.82447 97.9268 8.92047 98.3188 8.97647L99.3628 9.12047C99.9628 9.20047 100.411 9.37647 100.707 9.64847C101.011 9.92047 101.163 10.2925 101.163 10.7645C101.163 11.1085 101.055 11.4205 100.839 11.7005C100.623 11.9805 100.331 12.2005 99.9628 12.3605C99.6028 12.5205 99.1908 12.6005 98.7268 12.6005ZM106.636 12.5885C106.196 12.5885 105.808 12.5125 105.472 12.3605C105.144 12.2085 104.884 11.9965 104.692 11.7245C104.508 11.4525 104.416 11.1365 104.416 10.7765C104.416 10.2085 104.632 9.76047 105.064 9.43247C105.496 9.10447 106.08 8.94047 106.816 8.94047C107.464 8.94047 108.052 9.07647 108.58 9.34847V8.55647C108.58 8.07647 108.444 7.71647 108.172 7.47647C107.9 7.22847 107.504 7.10447 106.984 7.10447C106.688 7.10447 106.388 7.14847 106.084 7.23647C105.788 7.31647 105.46 7.44847 105.1 7.63247L104.764 6.94847C105.196 6.74047 105.596 6.58847 105.964 6.49247C106.332 6.39647 106.7 6.34847 107.068 6.34847C107.828 6.34847 108.412 6.52847 108.82 6.88847C109.236 7.24847 109.444 7.76447 109.444 8.43647V12.4805H108.58V11.8925C108.308 12.1245 108.008 12.3005 107.68 12.4205C107.36 12.5325 107.012 12.5885 106.636 12.5885ZM105.268 10.7525C105.268 11.0885 105.408 11.3645 105.688 11.5805C105.976 11.7885 106.344 11.8925 106.792 11.8925C107.152 11.8925 107.48 11.8365 107.776 11.7245C108.072 11.6125 108.34 11.4365 108.58 11.1965V10.0685C108.332 9.90047 108.068 9.78047 107.788 9.70847C107.508 9.62847 107.192 9.58847 106.84 9.58847C106.36 9.58847 105.976 9.69647 105.688 9.91247C105.408 10.1205 105.268 10.4005 105.268 10.7525ZM110.928 12.4805V4.08047L111.816 3.87647V12.4805H110.928ZM117.384 12.4805L115.572 4.08047H116.508L117.936 11.0165L120.012 4.08047H120.912L122.988 10.9925L124.428 4.08047H125.328L123.516 12.4805H122.58L120.456 5.36447L118.32 12.4805H117.384ZM126.49 12.4805V4.08047L127.378 3.87647V7.17647C127.85 6.62447 128.482 6.34847 129.274 6.34847C129.73 6.34847 130.13 6.44847 130.474 6.64847C130.826 6.84047 131.098 7.11247 131.29 7.46447C131.49 7.80847 131.59 8.21247 131.59 8.67647V12.4805H130.714V8.85647C130.714 8.32047 130.562 7.90047 130.258 7.59647C129.962 7.28447 129.554 7.12847 129.034 7.12847C128.674 7.12847 128.354 7.20847 128.074 7.36847C127.794 7.52847 127.562 7.75647 127.378 8.05247V12.4805H126.49ZM134.972 12.5885C134.532 12.5885 134.144 12.5125 133.808 12.3605C133.48 12.2085 133.22 11.9965 133.028 11.7245C132.844 11.4525 132.752 11.1365 132.752 10.7765C132.752 10.2085 132.968 9.76047 133.4 9.43247C133.832 9.10447 134.416 8.94047 135.152 8.94047C135.8 8.94047 136.388 9.07647 136.916 9.34847V8.55647C136.916 8.07647 136.78 7.71647 136.508 7.47647C136.236 7.22847 135.84 7.10447 135.32 7.10447C135.024 7.10447 134.724 7.14847 134.42 7.23647C134.124 7.31647 133.796 7.44847 133.436 7.63247L133.1 6.94847C133.532 6.74047 133.932 6.58847 134.3 6.49247C134.668 6.39647 135.036 6.34847 135.404 6.34847C136.164 6.34847 136.748 6.52847 137.156 6.88847C137.572 7.24847 137.78 7.76447 137.78 8.43647V12.4805H136.916V11.8925C136.644 12.1245 136.344 12.3005 136.016 12.4205C135.696 12.5325 135.348 12.5885 134.972 12.5885ZM133.604 10.7525C133.604 11.0885 133.744 11.3645 134.024 11.5805C134.312 11.7885 134.68 11.8925 135.128 11.8925C135.488 11.8925 135.816 11.8365 136.112 11.7245C136.408 11.6125 136.676 11.4365 136.916 11.1965V10.0685C136.668 9.90047 136.404 9.78047 136.124 9.70847C135.844 9.62847 135.528 9.58847 135.176 9.58847C134.696 9.58847 134.312 9.69647 134.024 9.91247C133.744 10.1205 133.604 10.4005 133.604 10.7525ZM141.452 12.6005C140.932 12.6005 140.532 12.4765 140.252 12.2285C139.972 11.9805 139.832 11.6205 139.832 11.1485V7.22447H138.536V6.46847H139.832V4.94447L140.708 4.71647V6.46847H142.52V7.22447H140.708V10.9205C140.708 11.2405 140.78 11.4725 140.924 11.6165C141.068 11.7525 141.304 11.8205 141.632 11.8205C141.8 11.8205 141.948 11.8085 142.076 11.7845C142.212 11.7605 142.356 11.7205 142.508 11.6645V12.4445C142.356 12.5005 142.184 12.5405 141.992 12.5645C141.808 12.5885 141.628 12.6005 141.452 12.6005ZM145.508 12.6005C145.012 12.6005 144.544 12.5205 144.104 12.3605C143.672 12.1925 143.296 11.9605 142.976 11.6645L143.516 11.0885C143.796 11.3445 144.104 11.5445 144.44 11.6885C144.776 11.8245 145.12 11.8925 145.472 11.8925C145.952 11.8925 146.344 11.7925 146.648 11.5925C146.952 11.3925 147.104 11.1325 147.104 10.8125C147.104 10.5485 147.012 10.3445 146.828 10.2005C146.652 10.0485 146.372 9.94447 145.988 9.88847L144.944 9.74447C144.344 9.65647 143.896 9.47647 143.6 9.20447C143.312 8.93247 143.168 8.56447 143.168 8.10047C143.168 7.76447 143.264 7.46447 143.456 7.20047C143.648 6.93647 143.912 6.72847 144.248 6.57647C144.592 6.42447 144.984 6.34847 145.424 6.34847C145.864 6.34847 146.276 6.41247 146.66 6.54047C147.044 6.66847 147.42 6.86847 147.788 7.14047L147.32 7.74047C146.984 7.50847 146.656 7.34047 146.336 7.23647C146.024 7.12447 145.704 7.06847 145.376 7.06847C144.96 7.06847 144.624 7.16047 144.368 7.34447C144.112 7.52847 143.984 7.76847 143.984 8.06447C143.984 8.33647 144.072 8.54447 144.248 8.68847C144.424 8.82447 144.708 8.92047 145.1 8.97647L146.144 9.12047C146.744 9.20047 147.192 9.37647 147.488 9.64847C147.792 9.92047 147.944 10.2925 147.944 10.7645C147.944 11.1085 147.836 11.4205 147.62 11.7005C147.404 11.9805 147.112 12.2005 146.744 12.3605C146.384 12.5205 145.972 12.6005 145.508 12.6005ZM150.898 12.5885C150.458 12.5885 150.07 12.5125 149.734 12.3605C149.406 12.2085 149.146 11.9965 148.954 11.7245C148.77 11.4525 148.678 11.1365 148.678 10.7765C148.678 10.2085 148.894 9.76047 149.326 9.43247C149.758 9.10447 150.342 8.94047 151.078 8.94047C151.726 8.94047 152.314 9.07647 152.842 9.34847V8.55647C152.842 8.07647 152.706 7.71647 152.434 7.47647C152.162 7.22847 151.766 7.10447 151.246 7.10447C150.95 7.10447 150.65 7.14847 150.346 7.23647C150.05 7.31647 149.722 7.44847 149.362 7.63247L149.026 6.94847C149.458 6.74047 149.858 6.58847 150.226 6.49247C150.594 6.39647 150.962 6.34847 151.33 6.34847C152.09 6.34847 152.674 6.52847 153.082 6.88847C153.498 7.24847 153.706 7.76447 153.706 8.43647V12.4805H152.842V11.8925C152.57 12.1245 152.27 12.3005 151.942 12.4205C151.622 12.5325 151.274 12.5885 150.898 12.5885ZM149.53 10.7525C149.53 11.0885 149.67 11.3645 149.95 11.5805C150.238 11.7885 150.606 11.8925 151.054 11.8925C151.414 11.8925 151.742 11.8365 152.038 11.7245C152.334 11.6125 152.602 11.4365 152.842 11.1965V10.0685C152.594 9.90047 152.33 9.78047 152.05 9.70847C151.77 9.62847 151.454 9.58847 151.102 9.58847C150.622 9.58847 150.238 9.69647 149.95 9.91247C149.67 10.1205 149.53 10.4005 149.53 10.7525ZM155.19 14.9285V6.46847H156.066V7.11647C156.586 6.62047 157.234 6.37247 158.01 6.37247C158.578 6.37247 159.09 6.51247 159.546 6.79247C160.002 7.06447 160.362 7.43247 160.626 7.89647C160.898 8.36047 161.034 8.88447 161.034 9.46847C161.034 10.0525 160.898 10.5805 160.626 11.0525C160.362 11.5165 160.002 11.8885 159.546 12.1685C159.09 12.4405 158.574 12.5765 157.998 12.5765C157.646 12.5765 157.306 12.5165 156.978 12.3965C156.65 12.2765 156.35 12.1045 156.078 11.8805V14.9285H155.19ZM157.926 11.7965C158.35 11.7965 158.73 11.6965 159.066 11.4965C159.402 11.2885 159.666 11.0125 159.858 10.6685C160.058 10.3165 160.158 9.92047 160.158 9.48047C160.158 9.04047 160.058 8.64447 159.858 8.29247C159.666 7.94047 159.402 7.66447 159.066 7.46447C158.73 7.25647 158.35 7.15247 157.926 7.15247C157.55 7.15247 157.198 7.22847 156.87 7.38047C156.55 7.52447 156.286 7.72847 156.078 7.99247V10.9685C156.286 11.2245 156.554 11.4285 156.882 11.5805C157.21 11.7245 157.558 11.7965 157.926 11.7965ZM162.268 14.9285V6.46847H163.144V7.11647C163.664 6.62047 164.312 6.37247 165.088 6.37247C165.656 6.37247 166.168 6.51247 166.624 6.79247C167.08 7.06447 167.44 7.43247 167.704 7.89647C167.976 8.36047 168.112 8.88447 168.112 9.46847C168.112 10.0525 167.976 10.5805 167.704 11.0525C167.44 11.5165 167.08 11.8885 166.624 12.1685C166.168 12.4405 165.652 12.5765 165.076 12.5765C164.724 12.5765 164.384 12.5165 164.056 12.3965C163.728 12.2765 163.428 12.1045 163.156 11.8805V14.9285H162.268ZM165.004 11.7965C165.428 11.7965 165.808 11.6965 166.144 11.4965C166.48 11.2885 166.744 11.0125 166.936 10.6685C167.136 10.3165 167.236 9.92047 167.236 9.48047C167.236 9.04047 167.136 8.64447 166.936 8.29247C166.744 7.94047 166.48 7.66447 166.144 7.46447C165.808 7.25647 165.428 7.15247 165.004 7.15247C164.628 7.15247 164.276 7.22847 163.948 7.38047C163.628 7.52447 163.364 7.72847 163.156 7.99247V10.9685C163.364 11.2245 163.632 11.4285 163.96 11.5805C164.288 11.7245 164.636 11.7965 165.004 11.7965Z" fill="#2C2A29"/>
<path d="M46.588 28.6125C45.94 28.6125 45.336 28.5005 44.776 28.2765C44.224 28.0445 43.76 27.7205 43.384 27.3045L44.44 26.3205C44.76 26.6645 45.076 26.9045 45.388 27.0405C45.708 27.1685 46.1 27.2325 46.564 27.2325C46.9 27.2325 47.192 27.1845 47.44 27.0885C47.696 26.9845 47.892 26.8405 48.028 26.6565C48.172 26.4725 48.244 26.2605 48.244 26.0205C48.244 25.7965 48.188 25.6045 48.076 25.4445C47.964 25.2845 47.812 25.1605 47.62 25.0725C47.428 24.9765 47.2 24.9285 46.936 24.9285H45.88V23.6325H46.792C47.168 23.6325 47.464 23.5365 47.68 23.3445C47.896 23.1445 48.004 22.8725 48.004 22.5285C48.004 22.3045 47.94 22.1045 47.812 21.9285C47.684 21.7445 47.508 21.6005 47.284 21.4965C47.068 21.3925 46.82 21.3405 46.54 21.3405C46.124 21.3405 45.764 21.4125 45.46 21.5565C45.164 21.7005 44.852 21.9565 44.524 22.3245L43.456 21.3405C43.848 20.9005 44.316 20.5605 44.86 20.3205C45.412 20.0725 45.992 19.9485 46.6 19.9485C47.184 19.9485 47.7 20.0525 48.148 20.2605C48.596 20.4605 48.948 20.7405 49.204 21.1005C49.46 21.4605 49.588 21.8725 49.588 22.3365C49.588 22.7845 49.44 23.1845 49.144 23.5365C48.848 23.8805 48.464 24.1205 47.992 24.2565C48.552 24.3685 48.996 24.5925 49.324 24.9285C49.66 25.2645 49.828 25.6685 49.828 26.1405C49.828 26.6125 49.688 27.0365 49.408 27.4125C49.128 27.7885 48.744 28.0845 48.256 28.3005C47.776 28.5085 47.22 28.6125 46.588 28.6125ZM50.9591 28.4805V27.3525L54.4631 23.8005C54.6311 23.6245 54.7631 23.4605 54.8591 23.3085C54.9631 23.1565 55.0351 23.0085 55.0751 22.8645C55.1231 22.7125 55.1471 22.5605 55.1471 22.4085C55.1471 22.0965 55.0151 21.8365 54.7511 21.6285C54.4951 21.4205 54.1671 21.3165 53.7671 21.3165C53.3831 21.3165 53.0271 21.3965 52.6991 21.5565C52.3711 21.7085 52.0111 21.9725 51.6191 22.3485L50.7311 21.2685C51.2031 20.8285 51.6951 20.5005 52.2071 20.2845C52.7191 20.0605 53.2551 19.9485 53.8151 19.9485C54.3831 19.9485 54.8831 20.0485 55.3151 20.2485C55.7471 20.4485 56.0831 20.7245 56.3231 21.0765C56.5631 21.4285 56.6831 21.8405 56.6831 22.3125C56.6831 22.5845 56.6431 22.8405 56.5631 23.0805C56.4911 23.3205 56.3711 23.5645 56.2031 23.8125C56.0351 24.0525 55.8111 24.3125 55.5311 24.5925L52.9871 27.1485L56.8151 27.1365V28.4805H50.9591ZM61.354 28.6125C60.626 28.6125 59.982 28.4325 59.422 28.0725C58.87 27.7045 58.438 27.1965 58.126 26.5485C57.822 25.8925 57.67 25.1365 57.67 24.2805C57.67 23.4165 57.822 22.6605 58.126 22.0125C58.438 21.3645 58.87 20.8605 59.422 20.5005C59.982 20.1325 60.626 19.9485 61.354 19.9485C62.09 19.9485 62.734 20.1325 63.286 20.5005C63.846 20.8605 64.278 21.3645 64.582 22.0125C64.894 22.6605 65.05 23.4165 65.05 24.2805C65.05 25.1365 64.894 25.8925 64.582 26.5485C64.278 27.1965 63.846 27.7045 63.286 28.0725C62.734 28.4325 62.09 28.6125 61.354 28.6125ZM61.354 27.1845C61.786 27.1845 62.158 27.0685 62.47 26.8365C62.782 26.6045 63.022 26.2685 63.19 25.8285C63.366 25.3885 63.454 24.8725 63.454 24.2805C63.454 23.6805 63.366 23.1645 63.19 22.7325C63.022 22.2925 62.782 21.9565 62.47 21.7245C62.158 21.4925 61.786 21.3765 61.354 21.3765C60.93 21.3765 60.562 21.4925 60.25 21.7245C59.938 21.9565 59.694 22.2925 59.518 22.7325C59.35 23.1645 59.266 23.6805 59.266 24.2805C59.266 24.8725 59.35 25.3885 59.518 25.8285C59.694 26.2685 59.938 26.6045 60.25 26.8365C60.562 27.0685 60.93 27.1845 61.354 27.1845ZM71.6469 28.6125C71.0229 28.6125 70.4709 28.5085 69.9909 28.3005C69.5109 28.0845 69.1349 27.7925 68.8629 27.4245C68.5909 27.0485 68.4549 26.6205 68.4549 26.1405C68.4549 25.8285 68.5229 25.5405 68.6589 25.2765C68.8029 25.0045 69.0029 24.7725 69.2589 24.5805C69.5229 24.3805 69.8189 24.2325 70.1469 24.1365C69.7229 23.9845 69.3789 23.7445 69.1149 23.4165C68.8509 23.0885 68.7189 22.7205 68.7189 22.3125C68.7189 21.8645 68.8469 21.4645 69.1029 21.1125C69.3589 20.7525 69.7069 20.4685 70.1469 20.2605C70.5949 20.0525 71.0949 19.9485 71.6469 19.9485C72.2069 19.9485 72.7069 20.0525 73.1469 20.2605C73.5869 20.4685 73.9349 20.7525 74.1909 21.1125C74.4469 21.4645 74.5749 21.8645 74.5749 22.3125C74.5749 22.7205 74.4429 23.0885 74.1789 23.4165C73.9149 23.7445 73.5709 23.9845 73.1469 24.1365C73.6509 24.2885 74.0589 24.5445 74.3709 24.9045C74.6829 25.2565 74.8389 25.6685 74.8389 26.1405C74.8389 26.6205 74.7029 27.0485 74.4309 27.4245C74.1669 27.7925 73.7909 28.0845 73.3029 28.3005C72.8229 28.5085 72.2709 28.6125 71.6469 28.6125ZM71.6469 23.5845C71.9109 23.5845 72.1469 23.5365 72.3549 23.4405C72.5709 23.3365 72.7389 23.1965 72.8589 23.0205C72.9789 22.8445 73.0389 22.6445 73.0389 22.4205C73.0389 22.1965 72.9789 21.9965 72.8589 21.8205C72.7389 21.6365 72.5709 21.4965 72.3549 21.4005C72.1469 21.2965 71.9109 21.2445 71.6469 21.2445C71.3829 21.2445 71.1429 21.2965 70.9269 21.4005C70.7189 21.4965 70.5549 21.6325 70.4349 21.8085C70.3149 21.9845 70.2549 22.1885 70.2549 22.4205C70.2549 22.6445 70.3149 22.8445 70.4349 23.0205C70.5549 23.1965 70.7189 23.3365 70.9269 23.4405C71.1429 23.5365 71.3829 23.5845 71.6469 23.5845ZM71.6469 27.3045C71.9669 27.3045 72.2469 27.2525 72.4869 27.1485C72.7269 27.0365 72.9149 26.8845 73.0509 26.6925C73.1869 26.4925 73.2549 26.2725 73.2549 26.0325C73.2549 25.7845 73.1869 25.5645 73.0509 25.3725C72.9149 25.1805 72.7269 25.0285 72.4869 24.9165C72.2469 24.8045 71.9669 24.7485 71.6469 24.7485C71.3349 24.7485 71.0549 24.8045 70.8069 24.9165C70.5669 25.0285 70.3789 25.1805 70.2429 25.3725C70.1069 25.5645 70.0389 25.7845 70.0389 26.0325C70.0389 26.2725 70.1069 26.4925 70.2429 26.6925C70.3789 26.8845 70.5669 27.0365 70.8069 27.1485C71.0549 27.2525 71.3349 27.3045 71.6469 27.3045ZM79.2055 28.6125C78.5815 28.6125 78.0295 28.5085 77.5495 28.3005C77.0695 28.0845 76.6935 27.7925 76.4215 27.4245C76.1495 27.0485 76.0135 26.6205 76.0135 26.1405C76.0135 25.8285 76.0815 25.5405 76.2175 25.2765C76.3615 25.0045 76.5615 24.7725 76.8175 24.5805C77.0815 24.3805 77.3775 24.2325 77.7055 24.1365C77.2815 23.9845 76.9375 23.7445 76.6735 23.4165C76.4095 23.0885 76.2775 22.7205 76.2775 22.3125C76.2775 21.8645 76.4055 21.4645 76.6615 21.1125C76.9175 20.7525 77.2655 20.4685 77.7055 20.2605C78.1535 20.0525 78.6535 19.9485 79.2055 19.9485C79.7655 19.9485 80.2655 20.0525 80.7055 20.2605C81.1455 20.4685 81.4935 20.7525 81.7495 21.1125C82.0055 21.4645 82.1335 21.8645 82.1335 22.3125C82.1335 22.7205 82.0015 23.0885 81.7375 23.4165C81.4735 23.7445 81.1295 23.9845 80.7055 24.1365C81.2095 24.2885 81.6175 24.5445 81.9295 24.9045C82.2415 25.2565 82.3975 25.6685 82.3975 26.1405C82.3975 26.6205 82.2615 27.0485 81.9895 27.4245C81.7255 27.7925 81.3495 28.0845 80.8615 28.3005C80.3815 28.5085 79.8295 28.6125 79.2055 28.6125ZM79.2055 23.5845C79.4695 23.5845 79.7055 23.5365 79.9135 23.4405C80.1295 23.3365 80.2975 23.1965 80.4175 23.0205C80.5375 22.8445 80.5975 22.6445 80.5975 22.4205C80.5975 22.1965 80.5375 21.9965 80.4175 21.8205C80.2975 21.6365 80.1295 21.4965 79.9135 21.4005C79.7055 21.2965 79.4695 21.2445 79.2055 21.2445C78.9415 21.2445 78.7015 21.2965 78.4855 21.4005C78.2775 21.4965 78.1135 21.6325 77.9935 21.8085C77.8735 21.9845 77.8135 22.1885 77.8135 22.4205C77.8135 22.6445 77.8735 22.8445 77.9935 23.0205C78.1135 23.1965 78.2775 23.3365 78.4855 23.4405C78.7015 23.5365 78.9415 23.5845 79.2055 23.5845ZM79.2055 27.3045C79.5255 27.3045 79.8055 27.2525 80.0455 27.1485C80.2855 27.0365 80.4735 26.8845 80.6095 26.6925C80.7455 26.4925 80.8135 26.2725 80.8135 26.0325C80.8135 25.7845 80.7455 25.5645 80.6095 25.3725C80.4735 25.1805 80.2855 25.0285 80.0455 24.9165C79.8055 24.8045 79.5255 24.7485 79.2055 24.7485C78.8935 24.7485 78.6135 24.8045 78.3655 24.9165C78.1255 25.0285 77.9375 25.1805 77.8015 25.3725C77.6655 25.5645 77.5975 25.7845 77.5975 26.0325C77.5975 26.2725 77.6655 26.4925 77.8015 26.6925C77.9375 26.8845 78.1255 27.0365 78.3655 27.1485C78.6135 27.2525 78.8935 27.3045 79.2055 27.3045ZM86.3955 19.9485C87.1075 19.9485 87.7315 20.1245 88.2675 20.4765C88.8115 20.8205 89.2315 21.3045 89.5275 21.9285C89.8315 22.5525 89.9835 23.2765 89.9835 24.1005C89.9835 24.9965 89.8155 25.7845 89.4795 26.4645C89.1515 27.1445 88.6875 27.6725 88.0875 28.0485C87.4875 28.4245 86.7875 28.6125 85.9875 28.6125C85.5555 28.6125 85.1195 28.5405 84.6795 28.3965C84.2475 28.2445 83.8875 28.0445 83.5995 27.7965L84.4875 26.6565C84.7195 26.8405 84.9675 26.9765 85.2315 27.0645C85.5035 27.1525 85.7955 27.1965 86.1075 27.1965C86.6035 27.1965 87.0195 27.0765 87.3555 26.8365C87.6995 26.5885 87.9595 26.2325 88.1355 25.7685C88.3195 25.2965 88.4155 24.7325 88.4235 24.0765C88.1435 24.4605 87.8075 24.7605 87.4155 24.9765C87.0315 25.1845 86.6195 25.2885 86.1795 25.2885C85.6355 25.2885 85.1515 25.1805 84.7275 24.9645C84.3035 24.7485 83.9715 24.4485 83.7315 24.0645C83.4915 23.6725 83.3715 23.2285 83.3715 22.7325C83.3715 22.1965 83.4995 21.7205 83.7555 21.3045C84.0195 20.8885 84.3795 20.5605 84.8355 20.3205C85.2995 20.0725 85.8195 19.9485 86.3955 19.9485ZM86.4435 24.0645C86.8115 24.0645 87.1555 23.9885 87.4755 23.8365C87.8035 23.6765 88.0915 23.4605 88.3395 23.1885C88.2675 22.8045 88.1435 22.4725 87.9675 22.1925C87.7915 21.9045 87.5755 21.6845 87.3195 21.5325C87.0715 21.3725 86.7875 21.2925 86.4675 21.2925C86.1715 21.2925 85.9035 21.3525 85.6635 21.4725C85.4315 21.5925 85.2475 21.7605 85.1115 21.9765C84.9755 22.1845 84.9075 22.4245 84.9075 22.6965C84.9075 22.9605 84.9715 23.1965 85.0995 23.4045C85.2355 23.6125 85.4195 23.7765 85.6515 23.8965C85.8835 24.0085 86.1475 24.0645 86.4435 24.0645ZM96.4384 19.9485C97.1504 19.9485 97.7744 20.1245 98.3104 20.4765C98.8544 20.8205 99.2744 21.3045 99.5704 21.9285C99.8744 22.5525 100.026 23.2765 100.026 24.1005C100.026 24.9965 99.8584 25.7845 99.5224 26.4645C99.1944 27.1445 98.7304 27.6725 98.1304 28.0485C97.5304 28.4245 96.8304 28.6125 96.0304 28.6125C95.5984 28.6125 95.1624 28.5405 94.7224 28.3965C94.2904 28.2445 93.9304 28.0445 93.6424 27.7965L94.5304 26.6565C94.7624 26.8405 95.0104 26.9765 95.2744 27.0645C95.5464 27.1525 95.8384 27.1965 96.1504 27.1965C96.6464 27.1965 97.0624 27.0765 97.3984 26.8365C97.7424 26.5885 98.0024 26.2325 98.1784 25.7685C98.3624 25.2965 98.4584 24.7325 98.4664 24.0765C98.1864 24.4605 97.8504 24.7605 97.4584 24.9765C97.0744 25.1845 96.6624 25.2885 96.2224 25.2885C95.6784 25.2885 95.1944 25.1805 94.7704 24.9645C94.3464 24.7485 94.0144 24.4485 93.7744 24.0645C93.5344 23.6725 93.4144 23.2285 93.4144 22.7325C93.4144 22.1965 93.5424 21.7205 93.7984 21.3045C94.0624 20.8885 94.4224 20.5605 94.8784 20.3205C95.3424 20.0725 95.8624 19.9485 96.4384 19.9485ZM96.4864 24.0645C96.8544 24.0645 97.1984 23.9885 97.5184 23.8365C97.8464 23.6765 98.1344 23.4605 98.3824 23.1885C98.3104 22.8045 98.1864 22.4725 98.0104 22.1925C97.8344 21.9045 97.6184 21.6845 97.3624 21.5325C97.1144 21.3725 96.8304 21.2925 96.5104 21.2925C96.2144 21.2925 95.9464 21.3525 95.7064 21.4725C95.4744 21.5925 95.2904 21.7605 95.1544 21.9765C95.0184 22.1845 94.9504 22.4245 94.9504 22.6965C94.9504 22.9605 95.0144 23.1965 95.1424 23.4045C95.2784 23.6125 95.4624 23.7765 95.6944 23.8965C95.9264 24.0085 96.1904 24.0645 96.4864 24.0645ZM104.295 28.6125C103.671 28.6125 103.119 28.5085 102.639 28.3005C102.159 28.0845 101.783 27.7925 101.511 27.4245C101.239 27.0485 101.103 26.6205 101.103 26.1405C101.103 25.8285 101.171 25.5405 101.307 25.2765C101.451 25.0045 101.651 24.7725 101.907 24.5805C102.171 24.3805 102.467 24.2325 102.795 24.1365C102.371 23.9845 102.027 23.7445 101.763 23.4165C101.499 23.0885 101.367 22.7205 101.367 22.3125C101.367 21.8645 101.495 21.4645 101.751 21.1125C102.007 20.7525 102.355 20.4685 102.795 20.2605C103.243 20.0525 103.743 19.9485 104.295 19.9485C104.855 19.9485 105.355 20.0525 105.795 20.2605C106.235 20.4685 106.583 20.7525 106.839 21.1125C107.095 21.4645 107.223 21.8645 107.223 22.3125C107.223 22.7205 107.091 23.0885 106.827 23.4165C106.563 23.7445 106.219 23.9845 105.795 24.1365C106.299 24.2885 106.707 24.5445 107.019 24.9045C107.331 25.2565 107.487 25.6685 107.487 26.1405C107.487 26.6205 107.351 27.0485 107.079 27.4245C106.815 27.7925 106.439 28.0845 105.951 28.3005C105.471 28.5085 104.919 28.6125 104.295 28.6125ZM104.295 23.5845C104.559 23.5845 104.795 23.5365 105.003 23.4405C105.219 23.3365 105.387 23.1965 105.507 23.0205C105.627 22.8445 105.687 22.6445 105.687 22.4205C105.687 22.1965 105.627 21.9965 105.507 21.8205C105.387 21.6365 105.219 21.4965 105.003 21.4005C104.795 21.2965 104.559 21.2445 104.295 21.2445C104.031 21.2445 103.791 21.2965 103.575 21.4005C103.367 21.4965 103.203 21.6325 103.083 21.8085C102.963 21.9845 102.903 22.1885 102.903 22.4205C102.903 22.6445 102.963 22.8445 103.083 23.0205C103.203 23.1965 103.367 23.3365 103.575 23.4405C103.791 23.5365 104.031 23.5845 104.295 23.5845ZM104.295 27.3045C104.615 27.3045 104.895 27.2525 105.135 27.1485C105.375 27.0365 105.563 26.8845 105.699 26.6925C105.835 26.4925 105.903 26.2725 105.903 26.0325C105.903 25.7845 105.835 25.5645 105.699 25.3725C105.563 25.1805 105.375 25.0285 105.135 24.9165C104.895 24.8045 104.615 24.7485 104.295 24.7485C103.983 24.7485 103.703 24.8045 103.455 24.9165C103.215 25.0285 103.027 25.1805 102.891 25.3725C102.755 25.5645 102.687 25.7845 102.687 26.0325C102.687 26.2725 102.755 26.4925 102.891 26.6925C103.027 26.8845 103.215 27.0365 103.455 27.1485C103.703 27.2525 103.983 27.3045 104.295 27.3045ZM111.485 19.9485C112.197 19.9485 112.821 20.1245 113.357 20.4765C113.901 20.8205 114.321 21.3045 114.617 21.9285C114.921 22.5525 115.073 23.2765 115.073 24.1005C115.073 24.9965 114.905 25.7845 114.569 26.4645C114.241 27.1445 113.777 27.6725 113.177 28.0485C112.577 28.4245 111.877 28.6125 111.077 28.6125C110.645 28.6125 110.209 28.5405 109.769 28.3965C109.337 28.2445 108.977 28.0445 108.689 27.7965L109.577 26.6565C109.809 26.8405 110.057 26.9765 110.321 27.0645C110.593 27.1525 110.885 27.1965 111.197 27.1965C111.693 27.1965 112.109 27.0765 112.445 26.8365C112.789 26.5885 113.049 26.2325 113.225 25.7685C113.409 25.2965 113.505 24.7325 113.513 24.0765C113.233 24.4605 112.897 24.7605 112.505 24.9765C112.121 25.1845 111.709 25.2885 111.269 25.2885C110.725 25.2885 110.241 25.1805 109.817 24.9645C109.393 24.7485 109.061 24.4485 108.821 24.0645C108.581 23.6725 108.461 23.2285 108.461 22.7325C108.461 22.1965 108.589 21.7205 108.845 21.3045C109.109 20.8885 109.469 20.5605 109.925 20.3205C110.389 20.0725 110.909 19.9485 111.485 19.9485ZM111.533 24.0645C111.901 24.0645 112.245 23.9885 112.565 23.8365C112.893 23.6765 113.181 23.4605 113.429 23.1885C113.357 22.8045 113.233 22.4725 113.057 22.1925C112.881 21.9045 112.665 21.6845 112.409 21.5325C112.161 21.3725 111.877 21.2925 111.557 21.2925C111.261 21.2925 110.993 21.3525 110.753 21.4725C110.521 21.5925 110.337 21.7605 110.201 21.9765C110.065 22.1845 109.997 22.4245 109.997 22.6965C109.997 22.9605 110.061 23.1965 110.189 23.4045C110.325 23.6125 110.509 23.7765 110.741 23.8965C110.973 24.0085 111.237 24.0645 111.533 24.0645ZM119.342 28.6125C118.718 28.6125 118.166 28.5085 117.686 28.3005C117.206 28.0845 116.83 27.7925 116.558 27.4245C116.286 27.0485 116.15 26.6205 116.15 26.1405C116.15 25.8285 116.218 25.5405 116.354 25.2765C116.498 25.0045 116.698 24.7725 116.954 24.5805C117.218 24.3805 117.514 24.2325 117.842 24.1365C117.418 23.9845 117.074 23.7445 116.81 23.4165C116.546 23.0885 116.414 22.7205 116.414 22.3125C116.414 21.8645 116.542 21.4645 116.798 21.1125C117.054 20.7525 117.402 20.4685 117.842 20.2605C118.29 20.0525 118.79 19.9485 119.342 19.9485C119.902 19.9485 120.402 20.0525 120.842 20.2605C121.282 20.4685 121.63 20.7525 121.886 21.1125C122.142 21.4645 122.27 21.8645 122.27 22.3125C122.27 22.7205 122.138 23.0885 121.874 23.4165C121.61 23.7445 121.266 23.9845 120.842 24.1365C121.346 24.2885 121.754 24.5445 122.066 24.9045C122.378 25.2565 122.534 25.6685 122.534 26.1405C122.534 26.6205 122.398 27.0485 122.126 27.4245C121.862 27.7925 121.486 28.0845 120.998 28.3005C120.518 28.5085 119.966 28.6125 119.342 28.6125ZM119.342 23.5845C119.606 23.5845 119.842 23.5365 120.05 23.4405C120.266 23.3365 120.434 23.1965 120.554 23.0205C120.674 22.8445 120.734 22.6445 120.734 22.4205C120.734 22.1965 120.674 21.9965 120.554 21.8205C120.434 21.6365 120.266 21.4965 120.05 21.4005C119.842 21.2965 119.606 21.2445 119.342 21.2445C119.078 21.2445 118.838 21.2965 118.622 21.4005C118.414 21.4965 118.25 21.6325 118.13 21.8085C118.01 21.9845 117.95 22.1885 117.95 22.4205C117.95 22.6445 118.01 22.8445 118.13 23.0205C118.25 23.1965 118.414 23.3365 118.622 23.4405C118.838 23.5365 119.078 23.5845 119.342 23.5845ZM119.342 27.3045C119.662 27.3045 119.942 27.2525 120.182 27.1485C120.422 27.0365 120.61 26.8845 120.746 26.6925C120.882 26.4925 120.95 26.2725 120.95 26.0325C120.95 25.7845 120.882 25.5645 120.746 25.3725C120.61 25.1805 120.422 25.0285 120.182 24.9165C119.942 24.8045 119.662 24.7485 119.342 24.7485C119.03 24.7485 118.75 24.8045 118.502 24.9165C118.262 25.0285 118.074 25.1805 117.938 25.3725C117.802 25.5645 117.734 25.7845 117.734 26.0325C117.734 26.2725 117.802 26.4925 117.938 26.6925C118.074 26.8845 118.262 27.0365 118.502 27.1485C118.75 27.2525 119.03 27.3045 119.342 27.3045Z" fill="#00369C"/>
<defs>
<filter id="filter0_dd_3004_2342" x="0.118934" y="2.64706" width="29.7621" height="29.7621" filterUnits="userSpaceOnUse" color-interpolation-filters="sRGB">
<feFlood flood-opacity="0" result="BackgroundImageFix"/>
<feColorMatrix in="SourceAlpha" type="matrix" values="0 0 0 0 0 0 0 0 0 0 0 0 0 0 0 0 0 0 127 0" result="hardAlpha"/>
<feOffset dy="0.261915"/>
<feGaussianBlur stdDeviation="0.392873"/>
<feColorMatrix type="matrix" values="0 0 0 0 0 0 0 0 0 0 0 0 0 0 0 0 0 0 0.3 0"/>
<feBlend mode="normal" in2="BackgroundImageFix" result="effect1_dropShadow_3004_2342"/>
<feColorMatrix in="SourceAlpha" type="matrix" values="0 0 0 0 0 0 0 0 0 0 0 0 0 0 0 0 0 0 127 0" result="hardAlpha"/>
<feMorphology radius="0.785745" operator="dilate" in="SourceAlpha" result="effect2_dropShadow_3004_2342"/>
<feOffset dy="1.04766"/>
<feGaussianBlur stdDeviation="1.04766"/>
<feColorMatrix type="matrix" values="0 0 0 0 0 0 0 0 0 0 0 0 0 0 0 0 0 0 0.15 0"/>
<feBlend mode="normal" in2="effect1_dropShadow_3004_2342" result="effect2_dropShadow_3004_2342"/>
<feBlend mode="normal" in="SourceGraphic" in2="effect2_dropShadow_3004_2342" result="shape"/>
</filter>
<clipPath id="clip0_3004_2342">
<rect x="3" y="4.48047" width="24" height="24" rx="12" fill="white"/>
</clipPath>
</defs>
</svg>
