<svg width="152" height="35" viewBox="0 0 152 35" fill="none" xmlns="http://www.w3.org/2000/svg">
<path d="M61.5211 24.1643V32.102H60.4226V24.4064L61.5211 24.1643ZM62.3566 29.2986C62.354 28.908 62.4305 28.5208 62.5816 28.1606C62.7253 27.8146 62.9363 27.5006 63.2023 27.2369C63.4697 26.9744 63.7848 26.7655 64.1306 26.6215C64.4907 26.4703 64.8776 26.3937 65.268 26.3963C65.6585 26.3937 66.0454 26.4703 66.4054 26.6215C66.7502 26.7646 67.0638 26.9737 67.3286 27.2369C67.5919 27.5018 67.801 27.8156 67.9442 28.1606C68.0952 28.5208 68.1718 28.908 68.1692 29.2986C68.1725 29.6928 68.0959 30.0836 67.9442 30.4474C67.8011 30.7924 67.5922 31.1062 67.3291 31.3711C67.0641 31.6344 66.7504 31.8435 66.4054 31.9866C66.0454 32.1377 65.6585 32.2143 65.268 32.2117C64.8778 32.2142 64.491 32.1376 64.1311 31.9866C63.7853 31.8426 63.4702 31.6336 63.2028 31.3711C62.9366 31.1075 62.7255 30.7935 62.5816 30.4474C62.4299 30.0836 62.3533 29.6928 62.3566 29.2986ZM65.2685 31.2444C65.5115 31.2474 65.7524 31.1984 65.9749 31.1007C66.1975 31.0031 66.3967 30.859 66.5592 30.6782C66.9122 30.307 67.1038 29.8109 67.0923 29.2986C67.0984 29.0457 67.0544 28.794 66.9629 28.5581C66.8714 28.3222 66.7342 28.1068 66.5592 27.9242C66.3961 27.7443 66.1966 27.6011 65.974 27.504C65.7514 27.407 65.5108 27.3583 65.268 27.3612C65.0245 27.3587 64.7832 27.4075 64.5597 27.5045C64.3363 27.6015 64.1358 27.7445 63.9712 27.9242C63.7948 28.106 63.6563 28.3212 63.5639 28.5572C63.4715 28.7932 63.427 29.0452 63.433 29.2986C63.4215 29.8109 63.6131 30.307 63.9661 30.6782C64.1304 30.8599 64.3316 31.0045 64.5562 31.1021C64.7808 31.1997 65.0236 31.2483 65.2685 31.2444ZM71.0812 32.102V24.4064L72.1801 24.1643V27.0666C72.3943 26.8505 72.6504 26.6803 72.9326 26.5666C73.2282 26.4505 73.5434 26.3927 73.8609 26.3963C74.1504 26.3862 74.4389 26.435 74.709 26.5398C74.9791 26.6447 75.225 26.8033 75.432 27.0061C75.6371 27.2128 75.7976 27.4596 75.9034 27.7309C76.0092 28.0023 76.0581 28.2926 76.0471 28.5837V32.102H74.9486V28.7713C74.9591 28.5815 74.9309 28.3915 74.8658 28.2129C74.8006 28.0343 74.6999 27.8708 74.5698 27.7323C74.4368 27.604 74.2791 27.5042 74.1062 27.439C73.9334 27.3737 73.7491 27.3444 73.5646 27.3528C73.2876 27.3491 73.0139 27.4136 72.7676 27.5404C72.5283 27.666 72.3257 27.8516 72.1796 28.079V32.102H71.0812ZM78.8714 32.2009C78.3365 32.2251 77.8105 32.0576 77.388 31.7286C77.204 31.5816 77.0566 31.3938 76.9574 31.1802C76.8582 30.9665 76.81 30.7327 76.8164 30.4972C76.8076 30.2556 76.858 30.0155 76.9634 29.798C77.0687 29.5805 77.2258 29.3921 77.4208 29.2494C77.9092 28.92 78.492 28.7597 79.08 28.7929C79.3458 28.7924 79.6109 28.8201 79.8709 28.8755C80.1224 28.9289 80.3687 29.0042 80.607 29.1007V28.5072C80.6194 28.3418 80.5942 28.1756 80.5333 28.0213C80.4724 27.8669 80.3774 27.7283 80.2554 27.616C79.9639 27.4 79.605 27.2949 79.2432 27.3195C78.9718 27.3216 78.7019 27.3604 78.441 27.4349C78.1203 27.5279 77.8079 27.6475 77.507 27.7923L77.1006 26.9677C77.4805 26.7834 77.8781 26.6378 78.2872 26.5333C78.6502 26.4429 79.0228 26.3968 79.3969 26.3958C80.0045 26.3571 80.6051 26.5429 81.0847 26.9179C81.2881 27.1044 81.4473 27.3338 81.5509 27.5896C81.6545 27.8454 81.6998 28.121 81.6835 28.3965V32.1024H80.6051V31.6183C80.3665 31.8108 80.0959 31.9597 79.8058 32.0583C79.504 32.156 79.1885 32.2042 78.8714 32.2009ZM77.8713 30.4747C77.8696 30.6047 77.9003 30.7332 77.9607 30.8484C78.0211 30.9635 78.1093 31.0618 78.2173 31.1342C78.4846 31.3136 78.8025 31.4023 79.1241 31.3871C79.4006 31.3898 79.6755 31.3452 79.937 31.2552C80.1842 31.1684 80.412 31.0339 80.6075 30.8593V29.8902C80.3969 29.7736 80.1713 29.6866 79.937 29.6317C79.6846 29.5747 79.4264 29.547 79.1677 29.5491C78.8339 29.5318 78.5031 29.6203 78.2225 29.802C78.1121 29.8755 78.022 29.9758 77.9607 30.0935C77.8994 30.2111 77.8688 30.3424 77.8718 30.4751L77.8713 30.4747ZM85.4093 31.2337C85.6823 31.2348 85.9524 31.1765 86.2007 31.0629C86.4674 30.9367 86.7093 30.7635 86.9147 30.5516L87.5739 31.266C87.2838 31.5577 86.9407 31.7912 86.5631 31.9542C86.1852 32.1185 85.7773 32.2026 85.3652 32.2014C84.9766 32.2043 84.5914 32.1277 84.2335 31.9762C83.8931 31.8336 83.5835 31.6265 83.3216 31.3664C83.0607 31.1029 82.8537 30.7911 82.7121 30.4484C82.5603 30.0846 82.4838 29.6938 82.487 29.2996C82.4845 28.9089 82.561 28.5218 82.7121 28.1615C82.8545 27.8175 83.0614 27.504 83.3216 27.2379C83.5822 26.9748 83.8921 26.7657 84.2335 26.6224C84.5914 26.4709 84.9766 26.3943 85.3652 26.3972C85.784 26.3975 86.1984 26.4816 86.5842 26.6444C86.9699 26.8033 87.3204 27.0369 87.6157 27.3317L86.926 28.0785C86.7245 27.8593 86.4819 27.6819 86.212 27.5564C85.9537 27.4366 85.6724 27.3746 85.3877 27.3748C85.1457 27.3716 84.9059 27.4202 84.6841 27.5173C84.4624 27.6143 84.264 27.7577 84.1022 27.9378C83.7533 28.3046 83.5636 28.7947 83.5747 29.301C83.5679 29.5544 83.6115 29.8066 83.7029 30.0431C83.7944 30.2795 83.9318 30.4954 84.1073 30.6782C84.2731 30.8572 84.4748 30.9992 84.6991 31.0949C84.9235 31.1906 85.1655 31.2379 85.4093 31.2337ZM92.6519 31.4645C92.3473 31.704 92.0053 31.8916 91.6397 32.0199C91.2678 32.1439 90.8779 32.2051 90.4859 32.2009C90.0901 32.2039 89.6977 32.1273 89.3321 31.9758C88.985 31.8334 88.6681 31.6265 88.3981 31.3659C88.1309 31.1049 87.9193 30.7925 87.776 30.4474C87.6242 30.0836 87.5477 29.6928 87.551 29.2986C87.5481 28.9103 87.6229 28.5252 87.7708 28.1662C87.9091 27.8272 88.1105 27.5175 88.3644 27.2538C88.6185 26.994 88.9211 26.7868 89.2552 26.644C89.602 26.4932 89.9765 26.4166 90.3546 26.4188C90.7237 26.4163 91.089 26.4931 91.4259 26.644C91.7508 26.7881 92.0425 26.9976 92.2829 27.2594C92.5279 27.5309 92.7199 27.846 92.8488 28.1883C92.9897 28.5567 93.0604 28.9482 93.0574 29.3427V29.6617H88.6401C88.7053 30.1094 88.9315 30.5178 89.2763 30.8105C89.6228 31.1129 90.0693 31.2756 90.529 31.267C90.7947 31.2679 91.0585 31.2233 91.3092 31.1351C91.5436 31.0562 91.7607 30.9329 91.9486 30.7721L92.6519 31.4645ZM90.3321 27.3415C89.9278 27.3365 89.5368 27.486 89.2388 27.7595C88.9254 28.0414 88.7179 28.4222 88.6508 28.8384H91.9693C91.8976 28.4299 91.6953 28.0556 91.3926 27.7722C91.1099 27.494 90.7286 27.3392 90.3321 27.3415ZM93.8924 32.102V26.5061H94.9914V27.0338C95.1924 26.8313 95.4314 26.6706 95.6947 26.5609C95.9702 26.4486 96.2654 26.3925 96.5629 26.3958C96.9154 26.3906 97.2634 26.4757 97.5738 26.643C97.8692 26.8037 98.1158 27.0413 98.2873 27.3307C98.4998 27.0353 98.7807 26.7958 99.1059 26.6327C99.44 26.4723 99.8068 26.392 100.177 26.3982C100.458 26.3884 100.737 26.4376 100.997 26.5427C101.258 26.6477 101.493 26.8062 101.688 27.008C101.886 27.2188 102.04 27.4668 102.141 27.7377C102.242 28.0085 102.288 28.2968 102.276 28.5856V32.1038H101.177V28.7732C101.199 28.3947 101.075 28.0223 100.831 27.7323C100.712 27.605 100.566 27.5052 100.404 27.4397C100.242 27.3742 100.068 27.3446 99.8936 27.3528C99.636 27.3496 99.3821 27.4143 99.1575 27.5404C98.924 27.6787 98.7278 27.8719 98.586 28.1033C98.6012 28.1809 98.6121 28.2592 98.6188 28.3379C98.626 28.4223 98.6296 28.5047 98.6296 28.5851V32.1034H97.5419V28.7728C97.5631 28.3942 97.4386 28.0219 97.194 27.7323C97.0744 27.605 96.9286 27.5052 96.7667 27.4397C96.6049 27.3742 96.4307 27.3446 96.2563 27.3528C96.0078 27.3491 95.7624 27.4077 95.5423 27.5231C95.32 27.6458 95.1313 27.8214 94.9928 28.0344V32.102H93.8924ZM103.078 29.2986C103.076 28.908 103.152 28.5208 103.303 28.1606C103.447 27.8146 103.658 27.5006 103.924 27.2369C104.192 26.9744 104.507 26.7655 104.852 26.6215C105.213 26.4703 105.599 26.3937 105.99 26.3963C106.38 26.3937 106.767 26.4703 107.127 26.6215C107.472 26.7646 107.786 26.9737 108.05 27.2369C108.314 27.5019 108.522 27.8156 108.666 28.1606C108.817 28.5208 108.893 28.908 108.891 29.2986C108.894 29.6928 108.817 30.0836 108.666 30.4474C108.522 30.7924 108.314 31.1062 108.05 31.3711C107.786 31.6344 107.472 31.8434 107.127 31.9866C106.767 32.1378 106.381 32.2146 105.99 32.2122C105.6 32.2148 105.213 32.1382 104.853 31.987C104.507 31.843 104.192 31.6341 103.925 31.3716C103.659 31.1079 103.448 30.7939 103.304 30.4479C103.152 30.084 103.075 29.693 103.078 29.2986ZM105.99 31.2444C106.233 31.2472 106.474 31.1981 106.696 31.1004C106.918 31.0028 107.117 30.8589 107.28 30.6782C107.633 30.307 107.824 29.8109 107.813 29.2986C107.819 29.0457 107.775 28.794 107.683 28.5581C107.592 28.3222 107.455 28.1068 107.28 27.9242C107.116 27.7443 106.917 27.6011 106.694 27.504C106.472 27.407 106.231 27.3583 105.988 27.3612C105.745 27.3587 105.504 27.4075 105.28 27.5045C105.057 27.6015 104.856 27.7445 104.692 27.9242C104.515 28.106 104.377 28.3212 104.284 28.5572C104.192 28.7932 104.147 29.0452 104.153 29.2986C104.142 29.8111 104.334 30.3072 104.688 30.6782C104.852 30.8599 105.053 31.0045 105.278 31.1021C105.503 31.1997 105.745 31.2483 105.99 31.2444ZM109.188 31.3763L109.781 30.6506C110.054 30.8658 110.355 31.0416 110.677 31.1727C110.972 31.2919 111.287 31.3535 111.605 31.3542C111.943 31.3687 112.277 31.2887 112.572 31.1234C112.683 31.0662 112.777 30.9797 112.843 30.8732C112.909 30.7666 112.945 30.6441 112.947 30.5188C112.95 30.4282 112.932 30.3381 112.894 30.2559C112.856 30.1737 112.798 30.1018 112.727 30.0459C112.525 29.9076 112.29 29.8242 112.046 29.8038L111.035 29.6631C110.578 29.6215 110.143 29.4434 109.788 29.1518C109.647 29.0192 109.536 28.8577 109.464 28.6784C109.391 28.499 109.357 28.3061 109.366 28.1127C109.36 27.8748 109.413 27.6391 109.518 27.4256C109.623 27.2122 109.778 27.0274 109.97 26.887C110.43 26.5571 110.987 26.3918 111.553 26.4179C111.95 26.4156 112.345 26.475 112.725 26.5938C113.11 26.7187 113.475 26.9001 113.807 27.1323L113.245 27.858C112.968 27.6683 112.667 27.5185 112.349 27.4128C112.067 27.3223 111.772 27.276 111.476 27.2754C111.19 27.2617 110.907 27.3344 110.663 27.4841C110.568 27.5412 110.49 27.6219 110.436 27.7183C110.382 27.8147 110.354 27.9235 110.355 28.0339C110.35 28.1237 110.366 28.2135 110.403 28.2954C110.441 28.3772 110.498 28.4485 110.569 28.503C110.785 28.6343 111.027 28.7146 111.278 28.7376L112.289 28.8783C112.751 28.9213 113.189 29.1009 113.548 29.3943C113.691 29.5264 113.805 29.6883 113.88 29.8686C113.955 30.0489 113.989 30.2434 113.982 30.4385C113.983 30.683 113.92 30.9236 113.8 31.1366C113.677 31.3552 113.509 31.5447 113.306 31.692C113.08 31.8543 112.83 31.9787 112.564 32.0602C112.265 32.155 111.953 32.2025 111.64 32.2009C111.178 32.2048 110.719 32.1343 110.28 31.9922C109.878 31.8635 109.506 31.654 109.188 31.3767V31.3763ZM116.692 34.3785V26.5061H117.78V27.0446C118.007 26.8387 118.272 26.6794 118.56 26.5755C118.86 26.4681 119.176 26.4141 119.494 26.416C119.876 26.4131 120.254 26.4898 120.604 26.6412C120.939 26.7849 121.243 26.992 121.499 27.251C121.756 27.5135 121.959 27.8234 122.098 28.1634C122.246 28.5224 122.321 28.9074 122.318 29.2958C122.321 29.686 122.246 30.0727 122.098 30.4338C121.96 30.776 121.757 31.0879 121.499 31.3519C121.241 31.6135 120.933 31.8217 120.595 31.9645C120.24 32.1153 119.859 32.1919 119.474 32.1897C119.17 32.1906 118.867 32.1428 118.579 32.048C118.296 31.9564 118.031 31.819 117.793 31.6413V34.378L116.692 34.3785ZM119.352 27.3753C119.05 27.3727 118.75 27.4326 118.473 27.5512C118.211 27.6619 117.978 27.8312 117.791 28.0461V30.5746C117.976 30.7861 118.207 30.9517 118.467 31.0582C118.747 31.1765 119.048 31.2364 119.352 31.2341C119.602 31.24 119.85 31.1943 120.082 31.0997C120.314 31.0051 120.523 30.8637 120.698 30.6843C120.877 30.504 121.017 30.2892 121.111 30.053C121.204 29.8167 121.249 29.5639 121.242 29.3099C121.248 29.0547 121.203 28.8007 121.109 28.5636C121.014 28.3264 120.872 28.1109 120.692 27.9303C120.519 27.7504 120.31 27.6083 120.08 27.5127C119.849 27.4171 119.601 27.3702 119.352 27.3748V27.3753ZM122.945 29.2986C122.942 28.908 123.019 28.5208 123.17 28.1606C123.314 27.8146 123.525 27.5006 123.791 27.2369C124.058 26.9744 124.373 26.7655 124.719 26.6215C125.079 26.4703 125.466 26.3937 125.856 26.3963C126.247 26.3937 126.634 26.4703 126.994 26.6215C127.339 26.7646 127.652 26.9737 127.917 27.2369C128.18 27.5019 128.389 27.8156 128.532 28.1606C128.683 28.5208 128.76 28.908 128.757 29.2986C128.76 29.6928 128.684 30.0836 128.532 30.4474C128.389 30.7924 128.18 31.1062 127.917 31.3711C127.652 31.6344 127.339 31.8434 126.994 31.9866C126.634 32.1377 126.247 32.2143 125.856 32.2117C125.466 32.2141 125.08 32.1375 124.72 31.9866C124.375 31.8426 124.059 31.6336 123.792 31.3711C123.526 31.1074 123.315 30.7934 123.171 30.4474C123.019 30.0837 122.942 29.6929 122.945 29.2986ZM125.857 31.2444C126.1 31.2474 126.341 31.1985 126.564 31.1008C126.786 31.0032 126.985 30.8591 127.148 30.6782C127.501 30.307 127.693 29.8109 127.681 29.2986C127.687 29.0457 127.643 28.794 127.552 28.5581C127.46 28.3222 127.323 28.1068 127.148 27.9242C126.985 27.7443 126.785 27.6011 126.563 27.504C126.34 27.407 126.1 27.3583 125.857 27.3612C125.613 27.3587 125.372 27.4075 125.149 27.5045C124.925 27.6015 124.725 27.7445 124.56 27.9242C124.384 28.106 124.245 28.3212 124.153 28.5572C124.06 28.7932 124.016 29.0452 124.022 29.2986C124.01 29.8109 124.202 30.307 124.555 30.6782C124.719 30.8598 124.92 31.0043 125.145 31.1019C125.369 31.1995 125.612 31.2481 125.856 31.2444H125.857ZM129.054 31.3763L129.648 30.6506C129.92 30.8658 130.222 31.0416 130.543 31.1727C130.838 31.2919 131.153 31.3535 131.472 31.3542C131.809 31.3687 132.144 31.2887 132.438 31.1234C132.55 31.0662 132.644 30.9797 132.71 30.8732C132.776 30.7666 132.812 30.6441 132.813 30.5188C132.817 30.4282 132.798 30.3381 132.76 30.2559C132.722 30.1737 132.665 30.1018 132.594 30.0459C132.391 29.9076 132.157 29.8242 131.912 29.8038L130.902 29.6631C130.444 29.6215 130.01 29.4434 129.654 29.1518C129.514 29.0192 129.403 28.8577 129.33 28.6784C129.257 28.499 129.224 28.3061 129.232 28.1127C129.227 27.8748 129.279 27.6391 129.384 27.4256C129.49 27.2122 129.645 27.0274 129.837 26.887C130.297 26.5571 130.854 26.3918 131.419 26.4179C131.817 26.4156 132.212 26.475 132.591 26.5938C132.977 26.7187 133.342 26.9001 133.674 27.1323L133.111 27.858C132.835 27.6683 132.534 27.5185 132.216 27.4128C131.933 27.3223 131.639 27.276 131.342 27.2754C131.056 27.2617 130.773 27.3344 130.529 27.4841C130.435 27.5412 130.357 27.6219 130.303 27.7183C130.249 27.8147 130.221 27.9235 130.222 28.0339C130.216 28.1237 130.233 28.2135 130.27 28.2954C130.307 28.3772 130.364 28.4485 130.436 28.503C130.651 28.6343 130.894 28.7145 131.145 28.7376L132.156 28.8783C132.617 28.9213 133.055 29.1009 133.414 29.3943C133.558 29.5264 133.671 29.6883 133.746 29.8686C133.821 30.0489 133.856 30.2434 133.848 30.4385C133.849 30.683 133.787 30.9236 133.667 31.1366C133.544 31.3552 133.375 31.5447 133.172 31.692C132.947 31.8543 132.696 31.9787 132.43 32.0602C132.132 32.1538 131.82 32.2002 131.507 32.1977C131.047 32.2012 130.589 32.1308 130.15 31.9889C129.747 31.8617 129.374 31.6534 129.054 31.3767L129.054 31.3763ZM135.021 25.6063C134.932 25.6072 134.844 25.5895 134.763 25.5545C134.682 25.5194 134.608 25.4677 134.548 25.4027C134.485 25.3403 134.435 25.2658 134.401 25.1836C134.367 25.1014 134.35 25.0132 134.35 24.9243C134.35 24.8353 134.367 24.7471 134.401 24.6649C134.435 24.5827 134.485 24.5082 134.548 24.4458C134.608 24.3808 134.682 24.3291 134.763 24.294C134.844 24.259 134.932 24.2413 135.021 24.2422C135.11 24.2418 135.199 24.2596 135.281 24.2946C135.363 24.3296 135.437 24.381 135.499 24.4458C135.564 24.5075 135.615 24.5817 135.65 24.664C135.685 24.7463 135.703 24.8348 135.702 24.9243C135.703 25.0137 135.685 25.1022 135.65 25.1845C135.615 25.2668 135.564 25.341 135.499 25.4027C135.437 25.4671 135.363 25.5182 135.281 25.5529C135.198 25.5876 135.11 25.6051 135.021 25.6044V25.6063ZM135.57 26.5079V32.102H134.472V26.5061L135.57 26.5079ZM142.284 29.3005C142.286 29.6906 142.212 30.0774 142.064 30.4385C141.926 30.7807 141.723 31.0926 141.465 31.3566C141.206 31.6174 140.898 31.8246 140.559 31.9664C140.204 32.1171 139.823 32.1938 139.438 32.1916C139.132 32.1937 138.827 32.1462 138.537 32.0508C138.252 31.9559 137.985 31.8147 137.746 31.6329V32.102H136.658V24.4064L137.757 24.1643V27.0338C137.986 26.8345 138.251 26.6797 138.537 26.5774C138.833 26.4705 139.145 26.4165 139.46 26.4179C139.842 26.415 140.22 26.4916 140.57 26.643C140.905 26.7868 141.209 26.9939 141.465 27.2529C141.722 27.5154 141.925 27.8253 142.064 28.1653C142.212 28.5246 142.287 28.91 142.284 29.2986L142.284 29.3005ZM139.317 27.3772C139.015 27.3746 138.716 27.4345 138.438 27.5531C138.176 27.6638 137.943 27.8331 137.757 28.048V30.5764C137.941 30.788 138.173 30.9536 138.432 31.0601C138.712 31.1784 139.013 31.2383 139.317 31.236C139.567 31.2413 139.815 31.195 140.047 31.1C140.278 31.005 140.487 30.8633 140.661 30.6839C140.84 30.5036 140.98 30.2888 141.074 30.0525C141.167 29.8162 141.212 29.5634 141.205 29.3094C141.211 29.0542 141.166 28.8003 141.072 28.5631C140.977 28.3259 140.836 28.1105 140.655 27.9298C140.482 27.7503 140.274 27.6083 140.044 27.5129C139.813 27.4174 139.566 27.3704 139.317 27.3748L139.317 27.3772ZM144.218 24.1667V32.102H143.119V24.4064L144.218 24.1667ZM150.151 31.4645C149.847 31.7038 149.505 31.8915 149.14 32.0199C148.768 32.1441 148.378 32.2055 147.986 32.2014C147.591 32.2043 147.198 32.1278 146.833 31.9762C146.486 31.8339 146.169 31.6269 145.899 31.3664C145.632 31.1054 145.421 30.7931 145.278 30.4484C145.126 30.0846 145.05 29.6938 145.053 29.2996C145.05 28.9112 145.125 28.5262 145.273 28.1671C145.411 27.8279 145.611 27.5179 145.865 27.2538C146.119 26.994 146.422 26.7868 146.756 26.644C147.102 26.4933 147.477 26.4166 147.855 26.4188C148.224 26.4163 148.589 26.4931 148.926 26.644C149.251 26.7881 149.543 26.9976 149.783 27.2594C150.028 27.5309 150.22 27.846 150.349 28.1883C150.49 28.5567 150.561 28.9482 150.558 29.3427V29.6617H146.14C146.206 30.1095 146.432 30.518 146.777 30.8105C147.124 31.1129 147.57 31.2756 148.03 31.267C148.296 31.2679 148.56 31.2233 148.81 31.1351C149.044 31.0561 149.26 30.933 149.447 30.7725L150.151 31.4645ZM147.834 27.3415C147.43 27.3365 147.039 27.486 146.741 27.7595C146.427 28.0414 146.22 28.4222 146.153 28.8384H149.471C149.4 28.4299 149.197 28.0556 148.895 27.7722C148.612 27.494 148.231 27.3392 147.834 27.3415Z" fill="#00369C"/>
<path d="M135.054 7.3904V3.76935H131.061V0L128.195 0.615242C128.097 1.15096 127.891 1.66162 127.591 2.11698C127.303 2.57801 126.923 2.97543 126.474 3.28472C126.025 3.59401 125.517 3.80862 124.982 3.9153C124.923 3.92797 124.866 3.93454 124.807 3.94533V7.39086H126.689V13.6413C126.689 15.1259 127.126 16.2479 127.998 17.0076C128.87 17.7672 130.161 18.1472 131.869 18.1475C132.384 18.1399 132.898 18.0997 133.408 18.0269C133.919 17.9674 134.425 17.8643 134.918 17.7186V14.205C134.592 14.3047 134.258 14.3807 133.92 14.4326C133.598 14.4785 133.273 14.501 132.948 14.4997C132.427 14.5523 131.904 14.4141 131.478 14.1111C131.321 13.9295 131.203 13.7181 131.131 13.4898C131.06 13.2615 131.035 13.021 131.06 12.783V7.39086L135.054 7.3904Z" fill="#3EC92B"/>
<path d="M89.8059 0.0151367C89.8371 0.630234 90.1049 1.20989 90.5539 1.63427C91.0029 2.05865 91.5988 2.2953 92.2183 2.2953C92.8379 2.2953 93.4338 2.05865 93.8827 1.63427C94.3317 1.20989 94.5995 0.630234 94.6308 0.0151367H89.8059Z" fill="#3EC92B"/>
<path d="M117.908 0.0151367C117.939 0.630234 118.207 1.20989 118.656 1.63427C119.105 2.05865 119.701 2.2953 120.321 2.2953C120.94 2.2953 121.536 2.05865 121.985 1.63427C122.434 1.20989 122.702 0.630234 122.733 0.0151367H117.908Z" fill="#3EC92B"/>
<path d="M68.0801 14.4715C68.6509 14.477 69.2149 14.3483 69.7263 14.096C70.281 13.8062 70.7754 13.4147 71.1836 12.942L73.7735 15.6255C73.0476 16.453 72.1442 17.1081 71.1298 17.5425C70.1018 17.9957 68.9894 18.229 67.8648 18.2272C66.8434 18.2349 65.8304 18.0436 64.8831 17.6641C63.5222 17.122 62.3576 16.1843 61.5417 14.9735C60.7257 13.7628 60.2964 12.3354 60.3099 10.8781C60.3022 9.8792 60.4993 8.8892 60.8891 7.9685C61.2574 7.09188 61.7987 6.29753 62.481 5.63237C63.9273 4.25221 65.8581 3.48718 67.8629 3.49991C69.015 3.4965 70.1549 3.73394 71.2086 4.19682C72.2383 4.6392 73.1591 5.29839 73.9076 6.12889L71.236 8.8916C70.8017 8.39227 70.2809 7.97426 69.6984 7.65736C69.1639 7.38623 68.5711 7.24822 67.971 7.25518C67.5246 7.2482 67.0821 7.33824 66.6744 7.519C66.2667 7.69977 65.9036 7.96689 65.6106 8.30169C64.9695 9.00514 64.6264 9.92743 64.6527 10.8762C64.6393 11.3466 64.7194 11.8149 64.8884 12.2544C65.0574 12.694 65.312 13.096 65.6375 13.4376C65.9477 13.7718 66.3258 14.0366 66.7467 14.2146C67.1676 14.3926 67.6218 14.4797 68.0791 14.4701" fill="#3EC92B"/>
<path d="M74.9595 17.9593V3.76939H79.3311V5.19087C79.7814 4.6501 80.3426 4.21108 80.9773 3.90314C81.6346 3.59308 82.3548 3.43702 83.0823 3.44698C83.4168 3.45756 83.7503 3.48891 84.0808 3.54085C84.3127 3.57784 84.5337 3.66499 84.728 3.79614V7.57815C84.4149 7.44476 84.0898 7.34137 83.7569 7.26936C83.3939 7.18851 83.0229 7.14805 82.6508 7.14875C81.9853 7.14407 81.3299 7.31059 80.7483 7.63212C80.1732 7.94562 79.6863 8.39739 79.332 8.94614V17.9593H74.9595Z" fill="#3EC92B"/>
<path d="M98.6264 16.0808C97.8087 16.7844 96.8723 17.3386 95.8604 17.7177C94.8324 18.0709 93.7504 18.2433 92.6629 18.2274C91.6197 18.2342 90.5847 18.043 89.6136 17.6642C88.7014 17.3179 87.8677 16.7944 87.1611 16.1244C86.4546 15.4543 85.8893 14.6511 85.4984 13.7616C85.0926 12.854 84.8858 11.871 84.8917 10.8778C84.8858 9.88741 85.0829 8.9062 85.471 7.99403C85.8403 7.11811 86.3764 6.32136 87.0497 5.64757C87.7257 4.97941 88.5279 4.4507 89.4102 4.09187C90.3385 3.71272 91.3335 3.52127 92.3371 3.52872C93.3049 3.51843 94.2643 3.70867 95.1541 4.08729C96.0439 4.46591 96.8446 5.02462 97.5051 5.72781C98.1628 6.43956 98.6717 7.27396 99.0026 8.18267C99.3687 9.17438 99.5517 10.2237 99.5427 11.28V12.3528H89.3714C89.656 13.0106 90.1243 13.5736 90.7207 13.9751C91.3571 14.4029 92.1116 14.6232 92.8796 14.6054C93.4321 14.6128 93.9812 14.5173 94.4984 14.3238C94.9635 14.1502 95.3865 13.8807 95.7395 13.5331L98.6264 16.0808ZM92.2588 7.07045C91.5891 7.05449 90.9335 7.26237 90.3968 7.66082C89.8562 8.08118 89.4678 8.66493 89.2902 9.32399H95.2537C95.0431 8.67748 94.6438 8.10786 94.1065 7.68757C93.5797 7.2776 92.9273 7.05976 92.2583 7.07045" fill="#3EC92B"/>
<path d="M111.66 17.9588V16.9127C111.106 17.3041 110.496 17.6113 109.851 17.8245C109.198 18.0398 108.515 18.1484 107.828 18.146C106.85 18.1521 105.882 17.9605 104.981 17.5829C104.112 17.2219 103.323 16.6932 102.66 16.0272C101.999 15.3591 101.472 14.5716 101.108 13.707C100.727 12.8028 100.534 11.8309 100.542 10.8504C100.534 9.86859 100.731 8.89583 101.121 7.99384C101.87 6.24325 103.287 4.85934 105.061 4.14567C106.59 3.52843 108.278 3.41589 109.876 3.82466C110.479 3.98217 111.06 4.21658 111.603 4.52204V0.955427L115.974 0.0168457V17.9597L111.66 17.9588ZM104.833 10.8504C104.823 11.3299 104.915 11.8062 105.103 12.2477C105.291 12.6893 105.572 13.086 105.926 13.4118C106.279 13.7496 106.695 14.0147 107.151 14.1918C107.607 14.369 108.094 14.4548 108.584 14.4442C109.154 14.451 109.721 14.3556 110.257 14.1627C110.76 13.9753 111.219 13.6878 111.606 13.3179V8.35567C111.211 8.00599 110.753 7.733 110.257 7.55083C109.722 7.3518 109.155 7.25176 108.584 7.25565C108.092 7.24261 107.602 7.32722 107.144 7.50449C106.685 7.68176 106.267 7.94815 105.913 8.2881C105.562 8.61596 105.285 9.01343 105.099 9.45471C104.913 9.89598 104.823 10.3712 104.834 10.8495" fill="#3EC92B"/>
<path d="M122.506 3.76929H118.135V17.9588H122.506V3.76929Z" fill="#3EC92B"/>
<path d="M148.426 7.81554C148.266 7.74643 148.086 7.74294 147.924 7.80585C147.763 7.86877 147.633 7.99294 147.563 8.15108L146.713 10.078C146.766 10.3407 146.792 10.6079 146.792 10.8758C146.802 11.346 146.718 11.8134 146.544 12.2509C146.37 12.6883 146.111 13.087 145.78 13.4236C145.461 13.7542 145.078 14.0174 144.653 14.1971C144.229 14.3768 143.772 14.4695 143.311 14.4695C142.85 14.4695 142.393 14.3768 141.969 14.1971C141.545 14.0174 141.161 13.7542 140.842 13.4236C140.192 12.7273 139.83 11.8123 139.83 10.8622C139.83 9.91206 140.192 8.99708 140.842 8.30078C141.161 7.96991 141.545 7.70664 141.969 7.5268C142.393 7.34695 142.85 7.25424 143.311 7.25424C143.772 7.25424 144.229 7.34695 144.653 7.5268C145.078 7.70664 145.461 7.96991 145.78 8.30078C145.98 8.50753 146.154 8.73704 146.3 8.98454L146.811 7.82209C146.889 7.64563 147.001 7.48612 147.141 7.35266C147.281 7.2192 147.445 7.11442 147.626 7.0443C147.806 6.97418 147.999 6.9401 148.193 6.94399C148.387 6.94789 148.578 6.9897 148.755 7.06702L150.327 7.75125C149.948 6.9651 149.432 6.25197 148.803 5.64507C148.092 4.97245 147.259 4.44008 146.348 4.07622C144.398 3.3076 142.227 3.3076 140.277 4.07622C139.366 4.44001 138.533 4.97239 137.822 5.64507C137.125 6.31338 136.566 7.11041 136.176 7.99152C135.776 8.90075 135.569 9.88242 135.569 10.8748C135.569 11.8672 135.776 12.8489 136.176 13.7582C136.565 14.6395 137.125 15.4366 137.822 16.1046C138.531 16.777 139.365 17.3056 140.277 17.6608C142.23 18.4117 144.395 18.4117 146.348 17.6608C147.261 17.3055 148.094 16.7769 148.803 16.1046C149.501 15.4367 150.06 14.6395 150.449 13.7582C150.855 12.8508 151.062 11.8679 151.057 10.8748C151.057 10.1808 150.955 9.49047 150.754 8.82591L148.426 7.81554Z" fill="#3EC92B"/>
<path d="M43.9003 7.3904V3.76935H39.9069V0L37.0413 0.615242C36.9429 1.15096 36.7374 1.66162 36.437 2.11698C36.1487 2.57799 35.7684 2.97539 35.3197 3.28468C34.8709 3.59397 34.3632 3.80859 33.8277 3.9153C33.7692 3.92797 33.7116 3.93454 33.6531 3.94533V7.39086H35.5353V13.6413C35.5353 15.1259 35.9715 16.2479 36.844 17.0076C37.7164 17.7672 39.0068 18.1472 40.7151 18.1475C41.23 18.14 41.7439 18.0997 42.2537 18.0269C42.7652 17.9674 43.2706 17.8643 43.7644 17.7186V14.205C43.4375 14.3047 43.1038 14.3807 42.7659 14.4326C42.4441 14.4785 42.1194 14.501 41.7943 14.4997C41.2729 14.5523 40.7501 14.4141 40.3237 14.1111C40.167 13.9295 40.0492 13.7181 39.9774 13.4898C39.9055 13.2615 39.8812 13.021 39.9059 12.783V7.39086L43.9003 7.3904Z" fill="#00369C"/>
<path d="M14.0859 0C14.1172 0.615097 14.385 1.19475 14.8339 1.61913C15.2829 2.04351 15.8788 2.28016 16.4984 2.28016C17.1179 2.28016 17.7138 2.04351 18.1628 1.61913C18.6118 1.19475 18.8796 0.615097 18.9108 0H14.0859Z" fill="#00369C"/>
<path d="M0.0014119 16.3765L2.07862 13.4528C2.85154 13.9298 3.67477 14.321 4.53351 14.6195C5.23762 14.8556 5.97527 14.9779 6.71835 14.9818C7.30562 15.0074 7.89119 14.9018 8.43205 14.673C8.60754 14.6147 8.76163 14.5059 8.8747 14.3603C8.98777 14.2147 9.05472 14.039 9.06702 13.8555C9.0679 13.7256 9.03626 13.5975 8.97494 13.4828C8.91363 13.3681 8.82457 13.2704 8.71579 13.1985C8.38047 12.9938 8.00171 12.8697 7.60967 12.8362L4.77711 12.4072C3.57685 12.2836 2.4451 11.7916 1.53901 10.9994C1.16175 10.6326 0.86602 10.1912 0.670869 9.70381C0.475717 9.2164 0.385482 8.69375 0.405993 8.16955C0.381445 7.51555 0.518601 6.86556 0.805431 6.27649C1.09226 5.68742 1.52002 5.17723 2.05125 4.79065C3.14871 3.96814 4.6509 3.55688 6.55784 3.55688C7.60337 3.5598 8.64332 3.70861 9.64722 3.99896C10.6614 4.2852 11.6291 4.71443 12.5209 5.27356L10.4436 8.06302C9.74776 7.65014 9.00478 7.32134 8.23047 7.08361C7.54765 6.88089 6.83897 6.7772 6.12635 6.77575C5.65997 6.75574 5.19601 6.85256 4.77711 7.05733C4.62985 7.11919 4.50337 7.22148 4.41249 7.35221C4.32161 7.48295 4.27008 7.63673 4.26394 7.79553C4.26164 7.9323 4.29527 8.06731 4.3615 8.18722C4.42774 8.30713 4.52429 8.4078 4.64162 8.47928C5.04147 8.69721 5.48269 8.82973 5.93704 8.86833L8.7696 9.29819C9.97285 9.40735 11.1109 9.89079 12.0219 10.6798C12.3964 11.0311 12.6921 11.4571 12.8896 11.9299C13.0871 12.4027 13.182 12.9115 13.1681 13.4233C13.1716 14.089 13.0043 14.7446 12.6818 15.3281C12.3509 15.9262 11.8958 16.4476 11.3468 16.8575C10.7328 17.3097 10.0431 17.6502 9.30968 17.8632C8.47794 18.1101 7.61375 18.2321 6.74574 18.225C5.47571 18.235 4.20996 18.0772 2.98173 17.7558C1.90966 17.4846 0.898274 17.016 0 16.3742" fill="#00369C"/>
<path d="M19.727 16.3765L21.8042 13.4528C22.5772 13.9298 23.4004 14.321 24.2591 14.6195C24.9632 14.8556 25.7009 14.9779 26.444 14.9818C27.0312 15.0074 27.6168 14.9018 28.1577 14.673C28.3332 14.6147 28.4872 14.5059 28.6003 14.3603C28.7134 14.2147 28.7803 14.039 28.7926 13.8555C28.7935 13.7256 28.7619 13.5975 28.7006 13.4828C28.6392 13.3681 28.5502 13.2704 28.4414 13.1985C28.1061 12.9938 27.7273 12.8697 27.3353 12.8362L24.5027 12.4072C23.3025 12.2836 22.1707 11.7916 21.2646 10.9994C20.8874 10.6326 20.5916 10.1912 20.3965 9.70381C20.2013 9.2164 20.1111 8.69375 20.1316 8.16955C20.1071 7.51555 20.2442 6.86556 20.531 6.27649C20.8179 5.68742 21.2456 5.17723 21.7768 4.79065C22.8743 3.96814 24.3765 3.55688 26.2835 3.55688C27.329 3.5598 28.3689 3.70861 29.3728 3.99896C30.387 4.2852 31.3547 4.71443 32.2465 5.27356L30.1693 8.06302C29.4734 7.65014 28.7304 7.32134 27.9561 7.08361C27.2733 6.88089 26.5646 6.7772 25.852 6.77575C25.3856 6.75574 24.9216 6.85256 24.5027 7.05733C24.3555 7.11924 24.2291 7.22154 24.1382 7.35227C24.0473 7.483 23.9957 7.63674 23.9896 7.79553C23.9873 7.9323 24.0209 8.06731 24.0871 8.18722C24.1533 8.30713 24.2499 8.4078 24.3672 8.47928C24.7671 8.69721 25.2083 8.82973 25.6627 8.86833L28.4952 9.29819C29.6985 9.40735 30.8365 9.89079 31.7475 10.6798C32.1228 11.0317 32.419 11.4586 32.6166 11.9324C32.8143 12.4062 32.9088 12.9162 32.8942 13.4289C32.8977 14.0946 32.7303 14.7502 32.4079 15.3337C32.077 15.9319 31.6219 16.4532 31.0728 16.8632C30.4589 17.3154 29.7692 17.6559 29.0358 17.8689C28.204 18.1158 27.3398 18.2377 26.4718 18.2307C25.2018 18.2406 23.936 18.0828 22.7078 17.7614C21.6358 17.4902 20.6243 17.0216 19.7261 16.3798" fill="#00369C"/>
<path d="M58.3947 16.0808C57.577 16.7844 56.6406 17.3386 55.6287 17.7177C54.6007 18.0709 53.5187 18.2433 52.4312 18.2274C51.3881 18.2341 50.3534 18.043 49.3824 17.6642C48.4702 17.3179 47.6365 16.7944 46.9299 16.1244C46.2234 15.4543 45.6581 14.6511 45.2672 13.7616C44.8614 12.854 44.6546 11.871 44.6605 10.8778C44.6547 9.88738 44.852 8.90617 45.2403 7.99403C45.6096 7.11812 46.1456 6.32137 46.8189 5.64757C47.4949 4.9794 48.2971 4.45069 49.1794 4.09187C50.1077 3.71272 51.1028 3.52127 52.1064 3.52872C53.0742 3.51843 54.0336 3.70867 54.9233 4.08729C55.8131 4.46591 56.6138 5.02462 57.2744 5.72781C57.932 6.43957 58.441 7.27396 58.7719 8.18267C59.1379 9.17438 59.3209 10.2237 59.312 11.28V12.3528H49.1393C49.4239 13.0106 49.8921 13.5736 50.4885 13.9751C51.1249 14.4029 51.8794 14.6232 52.6474 14.6054C53.2 14.6128 53.749 14.5173 54.2662 14.3238C54.7319 14.1504 55.1554 13.8809 55.5088 13.5331L58.3947 16.0808ZM52.0271 7.07045C51.3574 7.05449 50.7018 7.26237 50.1651 7.66082C49.6247 8.08134 49.2363 8.66503 49.0585 9.32399H55.022C54.8114 8.67748 54.412 8.10786 53.8748 7.68757C53.348 7.2776 52.6956 7.05976 52.0266 7.07045" fill="#00369C"/>
<path d="M18.6855 3.76929H14.314V17.9588H18.6855V3.76929Z" fill="#00369C"/>
</svg>
